<?xml version="1.0"?>
<svg xmlns="http://www.w3.org/2000/svg" xmlns:xlink="http://www.w3.org/1999/xlink" version="1.1" id="Capa_1" x="0px" y="0px" width="512px" height="512px" viewBox="0 0 95.396 95.396" style="enable-background:new 0 0 95.396 95.396;" xml:space="preserve"><g><g>
	<path d="M59.258,31.609c-0.366,0.602-0.178,1.374,0.404,1.725c0.027,0.014,0.048,0.031,0.062,0.038L80.64,46.064L95.211,24.46   c0.273-0.438,0.24-1.002-0.075-1.404c-0.273-0.402-0.801-0.592-1.286-0.466l-10.404,2.606l-0.533,0.134   C74.948,11.646,60.422,3.214,44.486,3.214C19.956,3.214,0,23.172,0,47.698s19.956,44.484,44.486,44.484   c18.478,0,35.229-11.628,41.687-28.938c1.242-3.333-0.451-7.05-3.792-8.295c-3.34-1.246-7.053,0.451-8.295,3.791   c-4.579,12.293-16.478,20.551-29.6,20.551c-17.428,0-31.595-14.172-31.595-31.59c0-17.42,14.167-31.591,31.595-31.591   c10.032,0,19.282,4.712,25.192,12.552l-9.329,2.344C59.911,31,59.497,31.217,59.258,31.609z" data-original="#000000" class="active-path" data-old_color="#fce403" fill="#fce403"/>
</g></g> </svg>
